<svg xmlns="http://www.w3.org/2000/svg" xmlns:xlink="http://www.w3.org/1999/xlink" contentStyleType="text/css" data-diagram-type="ACTIVITY" height="1422px" preserveAspectRatio="none" style="width:1242px;height:1422px;background:#FFFFFF;" version="1.1" viewBox="0 0 1242 1422" width="1242px" zoomAndPan="magnify"><title>Процесс использования системы диагностики</title><defs/><g><text fill="#000000" font-family="Verdana" font-size="44" font-weight="bold" lengthAdjust="spacing" textLength="1176.3984" x="30" y="70.8418">Процесс использования системы диагностики</text><text fill="#000000" font-family="Verdana" font-size="44" font-weight="bold" lengthAdjust="spacing" textLength="734.7871" x="250.8057" y="122.0605">для получения графика АЧХ</text><rect fill="#FFFFFF" height="83.8125" style="stroke:#FFFFFF;stroke-width:2;" width="1152.2549" x="42.0718" y="159.9277"/><ellipse cx="328.1167" cy="273.7402" fill="#FFFFFF" rx="20" ry="20" style="stroke:#000000;stroke-width:2;"/><rect fill="#FFFFFF" height="95.875" rx="25" ry="25" style="stroke:#000000;stroke-width:2;" width="402.4961" x="126.8687" y="333.7402"/><text fill="#000000" font-family="Verdana" font-size="24" lengthAdjust="spacing" textLength="324.3281" x="146.8687" y="376.0176">Запуск c2.py с указанием</text><text fill="#000000" font-family="Verdana" font-size="24" lengthAdjust="spacing" textLength="362.4961" x="146.8687" y="403.9551">пути к файлу конфигурации</text><rect fill="#FFFFFF" height="123.8125" rx="25" ry="25" style="stroke:#000000;stroke-width:2;" width="548.0898" x="54.0718" y="1200.4043"/><text fill="#000000" font-family="Verdana" font-size="24" lengthAdjust="spacing" textLength="508.0898" x="74.0718" y="1242.6816">Запуск amplitude_frequency_response.py</text><text fill="#000000" font-family="Verdana" font-size="24" lengthAdjust="spacing" textLength="463.7227" x="74.0718" y="1270.6191">с указанием пути к директории, где</text><text fill="#000000" font-family="Verdana" font-size="24" lengthAdjust="spacing" textLength="415.9219" x="74.0718" y="1298.5566">находятся записи и метаданные</text><ellipse cx="328.1167" cy="1386.2168" fill="none" rx="22" ry="22" style="stroke:#000000;stroke-width:2;"/><ellipse cx="328.1167" cy="1386.2168" fill="#FFFFFF" rx="12" ry="12" style="stroke:#000000;stroke-width:2;"/><line style="stroke:#000000;stroke-width:2;" x1="42.0718" x2="42.0718" y1="159.9277" y2="1408.2168"/><rect fill="#FFFFFF" height="67.9375" rx="25" ry="25" style="stroke:#000000;stroke-width:2;" width="144.2734" x="696.675" y="566.4199"/><text fill="#000000" font-family="Verdana" font-size="24" lengthAdjust="spacing" textLength="104.2734" x="716.675" y="608.6973">закрыть</text><polygon fill="#FFFFFF" points="705.6208,469.6152,832.0027,469.6152,856.0027,493.6152,832.0027,517.6152,705.6208,517.6152,681.6208,493.6152,705.6208,469.6152" style="stroke:#000000;stroke-width:2;"/><text fill="#000000" font-family="Verdana" font-size="22" lengthAdjust="spacing" textLength="28.6924" x="776.8118" y="538.0361">да</text><text fill="#000000" font-family="Verdana" font-size="22" lengthAdjust="spacing" textLength="126.3818" x="705.6208" y="501.2314">запущена?</text><text fill="#000000" font-family="Verdana" font-size="22" lengthAdjust="spacing" textLength="40.7344" x="856.0027" y="488.4268">нет</text><polygon fill="#FFFFFF" points="768.8118,674.3574,792.8118,698.3574,768.8118,722.3574,744.8118,698.3574,768.8118,674.3574" style="stroke:#000000;stroke-width:2;"/><rect fill="#FFFFFF" height="67.9375" rx="25" ry="25" style="stroke:#000000;stroke-width:2;" width="168.2617" x="684.6809" y="762.3574"/><text fill="#000000" font-family="Verdana" font-size="24" lengthAdjust="spacing" textLength="128.2617" x="704.6809" y="804.6348">запустить</text><rect fill="#FFFFFF" height="67.9375" rx="25" ry="25" style="stroke:#000000;stroke-width:2;" width="126.5195" x="705.552" y="870.2949"/><text fill="#000000" font-family="Verdana" font-size="24" lengthAdjust="spacing" textLength="86.5195" x="725.552" y="912.5723">"Write"</text><rect fill="#FFFFFF" height="67.9375" rx="25" ry="25" style="stroke:#000000;stroke-width:2;" width="120.707" x="708.4583" y="978.2324"/><text fill="#000000" font-family="Verdana" font-size="24" lengthAdjust="spacing" textLength="80.707" x="728.4583" y="1020.5098">"Start"</text><path d="M867.1321,1079.873 L867.1321,1112.1387 L827.1321,1120.1387 L867.1321,1128.1387 L867.1321,1160.4043 A0,0 0 0 0 867.1321,1160.4043 L1139.1458,1160.4043 A0,0 0 0 0 1139.1458,1160.4043 L1139.1458,1099.873 L1119.1458,1079.873 L867.1321,1079.873 A0,0 0 0 0 867.1321,1079.873" fill="#FFFFFF" style="stroke:#000000;stroke-width:2;"/><path d="M1119.1458,1079.873 L1119.1458,1099.873 L1139.1458,1099.873 L1119.1458,1079.873" fill="#FFFFFF" style="stroke:#000000;stroke-width:2;"/><text fill="#000000" font-family="Verdana" font-size="26" lengthAdjust="spacing" textLength="230.0137" x="879.1321" y="1114.0068">через некоторое</text><text fill="#000000" font-family="Verdana" font-size="26" lengthAdjust="spacing" textLength="83.0781" x="879.1321" y="1144.2725">время</text><rect fill="#FFFFFF" height="67.9375" rx="25" ry="25" style="stroke:#000000;stroke-width:2;" width="116.6406" x="710.4915" y="1086.1699"/><text fill="#000000" font-family="Verdana" font-size="24" lengthAdjust="spacing" textLength="76.6406" x="730.4915" y="1128.4473">"Stop"</text><line style="stroke:#000000;stroke-width:2;" x1="610.1616" x2="610.1616" y1="159.9277" y2="1408.2168"/><line style="stroke:#000000;stroke-width:2;" x1="1190.605" x2="1190.605" y1="159.9277" y2="1408.2168"/><line style="stroke:#000000;stroke-width:2;" x1="328.1167" x2="328.1167" y1="293.7402" y2="333.7402"/><polygon fill="#000000" points="320.1167,313.7402,328.1167,333.7402,336.1167,313.7402,328.1167,321.7402" style="stroke:#000000;stroke-width:2;"/><line style="stroke:#000000;stroke-width:2;" x1="328.1167" x2="328.1167" y1="1324.2168" y2="1364.2168"/><polygon fill="#000000" points="320.1167,1344.2168,328.1167,1364.2168,336.1167,1344.2168,328.1167,1352.2168" style="stroke:#000000;stroke-width:2;"/><line style="stroke:#000000;stroke-width:2;" x1="768.8118" x2="768.8118" y1="517.6152" y2="566.4199"/><polygon fill="#000000" points="760.8118,546.4199,768.8118,566.4199,776.8118,546.4199,768.8118,554.4199" style="stroke:#000000;stroke-width:2;"/><line style="stroke:#000000;stroke-width:2;" x1="856.0027" x2="880.0027" y1="493.6152" y2="493.6152"/><polygon fill="#000000" points="872.0027,580.3887,880.0027,600.3887,888.0027,580.3887,880.0027,588.3887" style="stroke:#000000;stroke-width:2;"/><line style="stroke:#000000;stroke-width:2;" x1="880.0027" x2="880.0027" y1="493.6152" y2="698.3574"/><line style="stroke:#000000;stroke-width:2;" x1="880.0027" x2="792.8118" y1="698.3574" y2="698.3574"/><polygon fill="#000000" points="812.8118,690.3574,792.8118,698.3574,812.8118,706.3574,804.8118,698.3574" style="stroke:#000000;stroke-width:2;"/><line style="stroke:#000000;stroke-width:2;" x1="768.8118" x2="768.8118" y1="634.3574" y2="674.3574"/><polygon fill="#000000" points="760.8118,654.3574,768.8118,674.3574,776.8118,654.3574,768.8118,662.3574" style="stroke:#000000;stroke-width:2;"/><line style="stroke:#000000;stroke-width:2;" x1="768.8118" x2="768.8118" y1="722.3574" y2="762.3574"/><polygon fill="#000000" points="760.8118,742.3574,768.8118,762.3574,776.8118,742.3574,768.8118,750.3574" style="stroke:#000000;stroke-width:2;"/><line style="stroke:#000000;stroke-width:2;" x1="768.8118" x2="768.8118" y1="830.2949" y2="870.2949"/><polygon fill="#000000" points="760.8118,850.2949,768.8118,870.2949,776.8118,850.2949,768.8118,858.2949" style="stroke:#000000;stroke-width:2;"/><line style="stroke:#000000;stroke-width:2;" x1="768.8118" x2="768.8118" y1="938.2324" y2="978.2324"/><polygon fill="#000000" points="760.8118,958.2324,768.8118,978.2324,776.8118,958.2324,768.8118,966.2324" style="stroke:#000000;stroke-width:2;"/><line style="stroke:#000000;stroke-width:2;" x1="768.8118" x2="768.8118" y1="1046.1699" y2="1086.1699"/><polygon fill="#000000" points="760.8118,1066.1699,768.8118,1086.1699,776.8118,1066.1699,768.8118,1074.1699" style="stroke:#000000;stroke-width:2;"/><line style="stroke:#000000;stroke-width:2;" x1="328.1167" x2="328.1167" y1="429.6152" y2="439.6152"/><line style="stroke:#000000;stroke-width:2;" x1="328.1167" x2="768.8118" y1="439.6152" y2="439.6152"/><line style="stroke:#000000;stroke-width:2;" x1="768.8118" x2="768.8118" y1="439.6152" y2="469.6152"/><polygon fill="#000000" points="760.8118,449.6152,768.8118,469.6152,776.8118,449.6152,768.8118,457.6152" style="stroke:#000000;stroke-width:2;"/><line style="stroke:#000000;stroke-width:2;" x1="768.8118" x2="768.8118" y1="1154.1074" y2="1170.4043"/><line style="stroke:#000000;stroke-width:2;" x1="768.8118" x2="328.1167" y1="1170.4043" y2="1170.4043"/><line style="stroke:#000000;stroke-width:2;" x1="328.1167" x2="328.1167" y1="1170.4043" y2="1200.4043"/><polygon fill="#000000" points="320.1167,1180.4043,328.1167,1200.4043,336.1167,1180.4043,328.1167,1188.4043" style="stroke:#000000;stroke-width:2;"/><text fill="#000000" font-family="Verdana" font-size="36" lengthAdjust="spacing" textLength="55.8105" x="298.2114" y="193.3438">CLI</text><text fill="#000000" font-family="Verdana" font-size="36" lengthAdjust="spacing" textLength="530.9824" x="620.1616" y="193.3438">GUI Программы управления</text><text fill="#000000" font-family="Verdana" font-size="36" lengthAdjust="spacing" textLength="560.4434" x="620.1616" y="235.25">регистрирующего комплекса</text><!--SRC=[RLA_QzjW4Ds_l-AIAORG8QCyTEXG0jbAwH88nldS21nPaRuC0GzHVX8SwcuTCuMkmhQ88ilolt3t7_LzPxKq413eTFVqxjsxSw4RMk8dkUH6xhYGJ3BYKZ9USyDBUUGNl6USymhPAQ60ebnnmRLCY1TSeZP7jT5qoHMNXn7oIw1Rackv1tv3m7EqokL6aJdnJ_xDpoRjzo1Zpsov4tjgAHxsmiYCFntiZqtgUeap0Vz2dpMeCgwel_SXle0MaclF0esgpuio2e8G0WvjSdxr2l05AIljEmV0QxX3N7RD-FFN_TQ1ZJYkTJPmh_Lpnik_yWyZP0hCgoOWBkKIR3_aGRFDfasDkVql5SJcOnCEQ4SbUcKFIfL_x116ZL1OSDunH84YAj1DGFpODNQOMfHNsCbLnzZeE1oOu1-DUhq11jlVaj3PRHzzyMQrqIX648sSfIJyVk82ybjG-I_aQRrKi3GwU86TpRHOoxHr_gtdlTDu6BhpOtiqIEpPkOtw5qU9JUDHb5fimxox3Vf_6_vOj4NLjeNzkpW8v0lZJP5RA5d857Db_bHqM3r6_8-dzbuWjz06AvbmqSLzZE8_]--></g></svg>